<svg width="118" height="39" viewBox="0 0 118 39" fill="none" xmlns="http://www.w3.org/2000/svg">
<mask id="path-1-inside-1_2_16" fill="white">
<path d="M50.7315 24.8604H50.6914L48.1641 31.7809H53.2792L50.7315 24.8604ZM43.9919 36.8559L49.207 23.1957C49.2472 23.0753 49.3472 23.0352 49.4478 23.0352H51.9955C52.0955 23.0352 52.1956 23.0753 52.2357 23.1957L57.4514 36.8559C57.5113 36.9966 57.4311 37.0764 57.2909 37.0764H55.4052C55.3051 37.0764 55.2045 37.0164 55.1644 36.9164L53.901 33.4858H47.5423L46.2784 36.9164C46.2383 37.0362 46.1382 37.0764 46.0376 37.0764H44.1524C44.0117 37.0764 43.9314 36.9966 43.9919 36.8559ZM58.9649 37.0764C58.8445 37.0764 58.7643 36.9966 58.7643 36.8762V28.5516L57.3602 28.6517C57.2398 28.6517 57.1595 28.5714 57.1595 28.451V27.2475C57.1595 27.1271 57.2398 27.0469 57.3602 27.0469L58.7643 27.1475V25.242C58.7643 23.657 59.7874 22.6339 61.6731 22.6339H63.5385C63.6589 22.6339 63.7392 22.7141 63.7392 22.8345V24.1386C63.7392 24.259 63.6589 24.3392 63.5385 24.3392H61.3718C60.9908 24.3392 60.7704 24.5597 60.7704 24.9407V27.1475L63.2378 27.0469C63.3576 27.0469 63.4379 27.1271 63.4379 27.2475V28.451C63.4379 28.5714 63.3576 28.6517 63.2378 28.6517L60.7704 28.5516V36.8762C60.7704 36.9966 60.6901 37.0764 60.5697 37.0764H58.9649ZM64.9162 27.2475C64.9162 27.1271 64.9965 27.0469 65.1169 27.0469H66.7211C66.8415 27.0469 66.9218 27.1271 66.9218 27.2475V29.1129H66.9619C67.3632 27.8693 68.0653 26.8468 69.9708 26.8468H70.2116C70.332 26.8468 70.4123 26.927 70.4123 27.0469V28.2509C70.4123 28.3713 70.332 28.451 70.2116 28.451H69.9708C67.8245 28.451 66.9218 29.9557 66.9218 32.2626V36.8762C66.9218 36.9966 66.8415 37.0764 66.7211 37.0764H65.1169C64.9965 37.0764 64.9162 36.9966 64.9162 36.8762V27.2475ZM71.6377 37.0764C71.5173 37.0764 71.4173 36.9966 71.4173 36.8762V27.2475C71.4173 27.1271 71.5173 27.0469 71.6377 27.0469H73.2024C73.3431 27.0469 73.4228 27.1271 73.4228 27.2475V36.8762C73.4228 36.9966 73.3431 37.0764 73.2024 37.0764H71.6377ZM71.2369 23.8379C71.2369 23.1556 71.7785 22.6339 72.4404 22.6339C73.1221 22.6339 73.6438 23.1556 73.6438 23.8379C73.6438 24.4998 73.1221 25.0413 72.4404 25.0413C71.7785 25.0413 71.2369 24.4998 71.2369 23.8379ZM81.6557 33.4259C81.676 33.3055 81.7359 33.2455 81.8563 33.2455H83.5617C83.6821 33.2455 83.7822 33.3258 83.7421 33.466C83.3611 35.7728 81.7161 37.277 79.3092 37.277C76.5406 37.277 74.7357 35.3517 74.7357 32.1619C74.7357 28.9931 76.501 26.8468 79.3092 26.8468C81.7161 26.8468 83.3209 28.3311 83.7223 30.6776C83.742 30.8183 83.6821 30.8986 83.5414 30.8986H81.8365C81.7161 30.8986 81.6359 30.8381 81.6155 30.7177C81.4352 29.5945 80.7331 28.451 79.3092 28.451C77.6242 28.451 76.8419 29.9354 76.8419 32.1619C76.8419 34.3885 77.6242 35.6722 79.3092 35.6722C80.7936 35.6722 81.4556 34.6293 81.6557 33.4259ZM91.3718 37.0764C91.2316 37.0764 91.1513 36.9966 91.1513 36.8762V34.83H91.1112C90.6901 36.1538 89.8473 37.277 88.0424 37.277C85.9961 37.277 84.4919 36.3144 84.4919 34.3484C84.4919 32.8843 85.3342 31.6204 88.4431 31.1993L91.0914 30.8584V30.5176C91.0914 29.0931 90.4295 28.3509 89.0451 28.3509C87.7411 28.3509 86.9989 29.0733 86.9989 29.9557V30.136C86.9989 30.2564 86.9186 30.3367 86.7988 30.3367H85.1137C84.973 30.3367 84.8927 30.2564 84.8927 30.136V29.9557C84.8927 28.8325 85.4947 26.8468 89.005 26.8468C92.5356 26.8468 93.2174 28.8325 93.2174 30.357V36.8762C93.2174 36.9966 93.1371 37.0764 93.0167 37.0764H91.3718ZM86.6382 34.1477C86.6382 35.2511 87.4607 35.7728 88.5036 35.7728C90.5493 35.7728 91.0914 34.3484 91.0914 32.8041V32.1619L88.4431 32.5034C87.3601 32.6435 86.6382 33.1449 86.6382 34.1477Z"/>
</mask>
<path d="M50.7315 24.8604H50.6914L48.1641 31.7809H53.2792L50.7315 24.8604ZM43.9919 36.8559L49.207 23.1957C49.2472 23.0753 49.3472 23.0352 49.4478 23.0352H51.9955C52.0955 23.0352 52.1956 23.0753 52.2357 23.1957L57.4514 36.8559C57.5113 36.9966 57.4311 37.0764 57.2909 37.0764H55.4052C55.3051 37.0764 55.2045 37.0164 55.1644 36.9164L53.901 33.4858H47.5423L46.2784 36.9164C46.2383 37.0362 46.1382 37.0764 46.0376 37.0764H44.1524C44.0117 37.0764 43.9314 36.9966 43.9919 36.8559ZM58.9649 37.0764C58.8445 37.0764 58.7643 36.9966 58.7643 36.8762V28.5516L57.3602 28.6517C57.2398 28.6517 57.1595 28.5714 57.1595 28.451V27.2475C57.1595 27.1271 57.2398 27.0469 57.3602 27.0469L58.7643 27.1475V25.242C58.7643 23.657 59.7874 22.6339 61.6731 22.6339H63.5385C63.6589 22.6339 63.7392 22.7141 63.7392 22.8345V24.1386C63.7392 24.259 63.6589 24.3392 63.5385 24.3392H61.3718C60.9908 24.3392 60.7704 24.5597 60.7704 24.9407V27.1475L63.2378 27.0469C63.3576 27.0469 63.4379 27.1271 63.4379 27.2475V28.451C63.4379 28.5714 63.3576 28.6517 63.2378 28.6517L60.7704 28.5516V36.8762C60.7704 36.9966 60.6901 37.0764 60.5697 37.0764H58.9649ZM64.9162 27.2475C64.9162 27.1271 64.9965 27.0469 65.1169 27.0469H66.7211C66.8415 27.0469 66.9218 27.1271 66.9218 27.2475V29.1129H66.9619C67.3632 27.8693 68.0653 26.8468 69.9708 26.8468H70.2116C70.332 26.8468 70.4123 26.927 70.4123 27.0469V28.2509C70.4123 28.3713 70.332 28.451 70.2116 28.451H69.9708C67.8245 28.451 66.9218 29.9557 66.9218 32.2626V36.8762C66.9218 36.9966 66.8415 37.0764 66.7211 37.0764H65.1169C64.9965 37.0764 64.9162 36.9966 64.9162 36.8762V27.2475ZM71.6377 37.0764C71.5173 37.0764 71.4173 36.9966 71.4173 36.8762V27.2475C71.4173 27.1271 71.5173 27.0469 71.6377 27.0469H73.2024C73.3431 27.0469 73.4228 27.1271 73.4228 27.2475V36.8762C73.4228 36.9966 73.3431 37.0764 73.2024 37.0764H71.6377ZM71.2369 23.8379C71.2369 23.1556 71.7785 22.6339 72.4404 22.6339C73.1221 22.6339 73.6438 23.1556 73.6438 23.8379C73.6438 24.4998 73.1221 25.0413 72.4404 25.0413C71.7785 25.0413 71.2369 24.4998 71.2369 23.8379ZM81.6557 33.4259C81.676 33.3055 81.7359 33.2455 81.8563 33.2455H83.5617C83.6821 33.2455 83.7822 33.3258 83.7421 33.466C83.3611 35.7728 81.7161 37.277 79.3092 37.277C76.5406 37.277 74.7357 35.3517 74.7357 32.1619C74.7357 28.9931 76.501 26.8468 79.3092 26.8468C81.7161 26.8468 83.3209 28.3311 83.7223 30.6776C83.742 30.8183 83.6821 30.8986 83.5414 30.8986H81.8365C81.7161 30.8986 81.6359 30.8381 81.6155 30.7177C81.4352 29.5945 80.7331 28.451 79.3092 28.451C77.6242 28.451 76.8419 29.9354 76.8419 32.1619C76.8419 34.3885 77.6242 35.6722 79.3092 35.6722C80.7936 35.6722 81.4556 34.6293 81.6557 33.4259ZM91.3718 37.0764C91.2316 37.0764 91.1513 36.9966 91.1513 36.8762V34.83H91.1112C90.6901 36.1538 89.8473 37.277 88.0424 37.277C85.9961 37.277 84.4919 36.3144 84.4919 34.3484C84.4919 32.8843 85.3342 31.6204 88.4431 31.1993L91.0914 30.8584V30.5176C91.0914 29.0931 90.4295 28.3509 89.0451 28.3509C87.7411 28.3509 86.9989 29.0733 86.9989 29.9557V30.136C86.9989 30.2564 86.9186 30.3367 86.7988 30.3367H85.1137C84.973 30.3367 84.8927 30.2564 84.8927 30.136V29.9557C84.8927 28.8325 85.4947 26.8468 89.005 26.8468C92.5356 26.8468 93.2174 28.8325 93.2174 30.357V36.8762C93.2174 36.9966 93.1371 37.0764 93.0167 37.0764H91.3718ZM86.6382 34.1477C86.6382 35.2511 87.4607 35.7728 88.5036 35.7728C90.5493 35.7728 91.0914 34.3484 91.0914 32.8041V32.1619L88.4431 32.5034C87.3601 32.6435 86.6382 33.1449 86.6382 34.1477Z" fill="#234952" stroke="#234952" stroke-width="2" mask="url(#path-1-inside-1_2_16)"/>
<mask id="path-2-inside-2_2_16" fill="white">
<path d="M45.0634 3.72367C45.0634 3.60332 45.1437 3.52311 45.2641 3.52311H46.9689C47.0893 3.52311 47.1696 3.60332 47.1696 3.72367V9.40028H54.0296V3.72367C54.0296 3.60332 54.1099 3.52311 54.2303 3.52311H55.9351C56.0555 3.52311 56.1358 3.60332 56.1358 3.72367V17.3637C56.1358 17.4841 56.0555 17.5644 55.9351 17.5644H54.2303C54.1099 17.5644 54.0296 17.4841 54.0296 17.3637V11.1051H47.1696V17.3637C47.1696 17.4841 47.0893 17.5644 46.9689 17.5644H45.2641C45.1437 17.5644 45.0634 17.4841 45.0634 17.3637V3.72367ZM62.2762 17.7651C59.4476 17.7651 57.6427 15.8194 57.6427 12.5494C57.6427 9.60094 59.4278 7.33429 62.2762 7.33429C65.024 7.33429 66.7492 9.60094 66.7492 12.7099C66.7492 12.8506 66.6892 12.9309 66.5688 12.9309H59.7489C59.8292 14.997 60.7116 16.1603 62.3163 16.1603C63.5797 16.1603 64.3021 15.6385 64.6232 14.616C64.6633 14.4956 64.7436 14.4351 64.8436 14.4351H66.4484C66.5886 14.4351 66.6689 14.5154 66.6287 14.6561C66.1274 16.4412 64.643 17.7651 62.2762 17.7651ZM59.7687 11.9276H64.583C64.583 10.2227 63.8205 8.93902 62.2762 8.93902C60.8721 8.93902 59.9496 9.98194 59.7687 11.9276ZM74.4751 17.5644C74.3344 17.5644 74.2541 17.4841 74.2541 17.3637V15.318H74.2139C73.7928 16.6419 72.9506 17.7651 71.1451 17.7651C69.0989 17.7651 67.5947 16.8024 67.5947 14.8364C67.5947 13.3718 68.437 12.1085 71.5465 11.6873L74.1942 11.3459V11.0051C74.1942 9.58115 73.5322 8.83896 72.1479 8.83896C70.8444 8.83896 70.1022 9.56081 70.1022 10.4432V10.6241C70.1022 10.7445 70.0219 10.8247 69.9015 10.8247H68.2165C68.0757 10.8247 67.996 10.7445 67.996 10.6241V10.4432C67.996 9.32001 68.5975 7.33429 72.1078 7.33429C75.6384 7.33429 76.3201 9.32001 76.3201 10.8445V17.3637C76.3201 17.4841 76.2399 17.5644 76.1195 17.5644H74.4751ZM69.741 14.6358C69.741 15.7391 70.5635 16.2603 71.6064 16.2603C73.6526 16.2603 74.1942 14.8364 74.1942 13.2916V12.65L71.5465 12.9908C70.4629 13.1316 69.741 13.633 69.741 14.6358ZM78.5236 17.5644C78.4032 17.5644 78.3229 17.4841 78.3229 17.3637V3.3225C78.3229 3.20215 78.4032 3.12189 78.5236 3.12189H80.1284C80.2488 3.12189 80.3285 3.20215 80.3285 3.3225V17.3637C80.3285 17.4841 80.2488 17.5644 80.1284 17.5644H78.5236ZM85.1066 4.52606C85.227 4.52606 85.3072 4.60627 85.3072 4.72662V7.63518L87.7141 7.53491C87.8345 7.53491 87.9148 7.61512 87.9148 7.73546V8.93902C87.9148 9.05942 87.8345 9.13969 87.7141 9.13969L85.3072 9.03908V15.2575C85.3072 15.7391 85.5277 15.9596 86.0093 15.9596H87.7141C87.8345 15.9596 87.9148 16.0399 87.9148 16.1603V17.3637C87.9148 17.4841 87.8345 17.5644 87.7141 17.5644H85.7487C84.3243 17.5644 83.3017 16.8425 83.3017 15.0569V9.03908L81.737 9.13969C81.6166 9.13969 81.5364 9.05942 81.5364 8.93902V7.73546C81.5364 7.61512 81.6166 7.53491 81.737 7.53491L83.3017 7.63518V4.72662C83.3017 4.60627 83.3814 4.52606 83.5018 4.52606H85.1066ZM95.76 17.5644C95.6396 17.5644 95.5594 17.4841 95.5594 17.3637V12.5494C95.5594 10.4833 95.058 8.93902 93.2927 8.93902C91.6879 8.93902 90.9457 10.4833 90.9457 12.5494V17.3637C90.9457 17.4841 90.8654 17.5644 90.7456 17.5644H89.1408C89.0204 17.5644 88.9401 17.4841 88.9401 17.3637V3.3225C88.9401 3.20215 89.0204 3.12189 89.1408 3.12189H90.6851C90.8654 3.12189 90.9457 3.20215 90.9457 3.3225V9.86154H90.9858C91.4075 8.45758 92.2498 7.33429 94.1954 7.33429C96.9437 7.33429 97.5655 9.44041 97.5655 12.5494V17.3637C97.5655 17.4841 97.4852 17.5644 97.3648 17.5644H95.76Z"/>
</mask>
<path d="M45.0634 3.72367C45.0634 3.60332 45.1437 3.52311 45.2641 3.52311H46.9689C47.0893 3.52311 47.1696 3.60332 47.1696 3.72367V9.40028H54.0296V3.72367C54.0296 3.60332 54.1099 3.52311 54.2303 3.52311H55.9351C56.0555 3.52311 56.1358 3.60332 56.1358 3.72367V17.3637C56.1358 17.4841 56.0555 17.5644 55.9351 17.5644H54.2303C54.1099 17.5644 54.0296 17.4841 54.0296 17.3637V11.1051H47.1696V17.3637C47.1696 17.4841 47.0893 17.5644 46.9689 17.5644H45.2641C45.1437 17.5644 45.0634 17.4841 45.0634 17.3637V3.72367ZM62.2762 17.7651C59.4476 17.7651 57.6427 15.8194 57.6427 12.5494C57.6427 9.60094 59.4278 7.33429 62.2762 7.33429C65.024 7.33429 66.7492 9.60094 66.7492 12.7099C66.7492 12.8506 66.6892 12.9309 66.5688 12.9309H59.7489C59.8292 14.997 60.7116 16.1603 62.3163 16.1603C63.5797 16.1603 64.3021 15.6385 64.6232 14.616C64.6633 14.4956 64.7436 14.4351 64.8436 14.4351H66.4484C66.5886 14.4351 66.6689 14.5154 66.6287 14.6561C66.1274 16.4412 64.643 17.7651 62.2762 17.7651ZM59.7687 11.9276H64.583C64.583 10.2227 63.8205 8.93902 62.2762 8.93902C60.8721 8.93902 59.9496 9.98194 59.7687 11.9276ZM74.4751 17.5644C74.3344 17.5644 74.2541 17.4841 74.2541 17.3637V15.318H74.2139C73.7928 16.6419 72.9506 17.7651 71.1451 17.7651C69.0989 17.7651 67.5947 16.8024 67.5947 14.8364C67.5947 13.3718 68.437 12.1085 71.5465 11.6873L74.1942 11.3459V11.0051C74.1942 9.58115 73.5322 8.83896 72.1479 8.83896C70.8444 8.83896 70.1022 9.56081 70.1022 10.4432V10.6241C70.1022 10.7445 70.0219 10.8247 69.9015 10.8247H68.2165C68.0757 10.8247 67.996 10.7445 67.996 10.6241V10.4432C67.996 9.32001 68.5975 7.33429 72.1078 7.33429C75.6384 7.33429 76.3201 9.32001 76.3201 10.8445V17.3637C76.3201 17.4841 76.2399 17.5644 76.1195 17.5644H74.4751ZM69.741 14.6358C69.741 15.7391 70.5635 16.2603 71.6064 16.2603C73.6526 16.2603 74.1942 14.8364 74.1942 13.2916V12.65L71.5465 12.9908C70.4629 13.1316 69.741 13.633 69.741 14.6358ZM78.5236 17.5644C78.4032 17.5644 78.3229 17.4841 78.3229 17.3637V3.3225C78.3229 3.20215 78.4032 3.12189 78.5236 3.12189H80.1284C80.2488 3.12189 80.3285 3.20215 80.3285 3.3225V17.3637C80.3285 17.4841 80.2488 17.5644 80.1284 17.5644H78.5236ZM85.1066 4.52606C85.227 4.52606 85.3072 4.60627 85.3072 4.72662V7.63518L87.7141 7.53491C87.8345 7.53491 87.9148 7.61512 87.9148 7.73546V8.93902C87.9148 9.05942 87.8345 9.13969 87.7141 9.13969L85.3072 9.03908V15.2575C85.3072 15.7391 85.5277 15.9596 86.0093 15.9596H87.7141C87.8345 15.9596 87.9148 16.0399 87.9148 16.1603V17.3637C87.9148 17.4841 87.8345 17.5644 87.7141 17.5644H85.7487C84.3243 17.5644 83.3017 16.8425 83.3017 15.0569V9.03908L81.737 9.13969C81.6166 9.13969 81.5364 9.05942 81.5364 8.93902V7.73546C81.5364 7.61512 81.6166 7.53491 81.737 7.53491L83.3017 7.63518V4.72662C83.3017 4.60627 83.3814 4.52606 83.5018 4.52606H85.1066ZM95.76 17.5644C95.6396 17.5644 95.5594 17.4841 95.5594 17.3637V12.5494C95.5594 10.4833 95.058 8.93902 93.2927 8.93902C91.6879 8.93902 90.9457 10.4833 90.9457 12.5494V17.3637C90.9457 17.4841 90.8654 17.5644 90.7456 17.5644H89.1408C89.0204 17.5644 88.9401 17.4841 88.9401 17.3637V3.3225C88.9401 3.20215 89.0204 3.12189 89.1408 3.12189H90.6851C90.8654 3.12189 90.9457 3.20215 90.9457 3.3225V9.86154H90.9858C91.4075 8.45758 92.2498 7.33429 94.1954 7.33429C96.9437 7.33429 97.5655 9.44041 97.5655 12.5494V17.3637C97.5655 17.4841 97.4852 17.5644 97.3648 17.5644H95.76Z" fill="#234952" stroke="#234952" stroke-width="2" mask="url(#path-2-inside-2_2_16)"/>
<mask id="path-3-inside-3_2_16" fill="white">
<path d="M106.089 7.20906H105.868C105.969 6.78777 106.029 6.34653 106.049 5.90522C106.069 5.46392 105.969 5.08276 105.768 4.76186C105.347 4.26036 104.865 4.09989 104.284 4.28043C103.702 4.46098 103.22 4.7418 102.82 5.10283C101.756 6.08571 100.974 7.32941 100.433 8.83397C99.8911 10.3381 99.5496 11.6823 99.4095 12.8253C99.189 14.1893 99.2891 15.4131 99.7305 16.4961C100.131 17.3186 100.773 17.5797 101.676 17.3186C102.097 17.1581 102.418 16.8975 102.659 16.5363C102.88 16.1756 103.06 15.8144 103.161 15.4334L104.244 11.8429C104.344 11.5015 104.324 11.281 104.224 11.1809C104.103 11.0803 103.903 11.0204 103.601 11.0204H102.619L102.679 10.7796H106.049L105.969 11.0204C105.467 11.0204 105.146 11.3013 104.966 11.8627L103.722 16.075C103.321 16.5363 102.88 16.9178 102.398 17.2185C101.897 17.5396 101.315 17.7001 100.633 17.7001C100.031 17.7001 99.5898 17.4995 99.2891 17.1179C98.9883 16.7369 98.7673 16.2757 98.6673 15.7342C98.5667 15.1926 98.5067 14.6709 98.5271 14.1695C98.5469 13.0661 98.7673 11.8627 99.1687 10.5592C99.5497 9.2551 100.112 8.05153 100.814 6.96832C101.315 6.20606 101.957 5.504 102.739 4.88221C103.421 4.28043 104.224 3.97954 105.146 3.95947C105.467 3.97954 105.788 4.03974 106.089 4.14002C106.39 4.26036 106.631 4.42084 106.791 4.62145L106.089 7.20906ZM110.582 11.5015L109.038 16.0349C108.977 16.2355 108.917 16.4362 108.917 16.5764C108.917 16.6567 108.937 16.7171 108.997 16.7573C109.017 16.7573 109.038 16.7771 109.078 16.7771C109.599 16.7771 110.642 14.6308 110.762 14.2294L110.983 14.2498C110.662 15.0722 109.499 17.6798 108.496 17.6798H108.476C108.175 17.6798 108.074 17.439 108.074 17.1383C108.074 16.6968 108.295 16.0954 108.376 15.8342L109.378 12.8654C109.098 13.4872 107.152 17.7001 106.029 17.7001C105.708 17.6798 105.447 17.3587 105.306 16.4961C105.266 16.2559 105.246 16.0151 105.246 15.7743C105.246 14.8716 105.487 13.9089 105.748 13.0463C106.289 11.3613 107.412 8.65326 108.957 7.61023C109.338 7.36948 109.719 7.22907 110.04 7.22907C110.602 7.22907 111.023 7.65031 111.164 8.49283L111.806 7.22907H112.026C111.504 8.79383 111.083 10.0171 110.582 11.5015ZM108.877 13.3872C109.619 11.8027 110.301 10.1375 110.602 9.23475C110.602 8.51285 110.321 7.59016 109.659 7.59016C109.519 7.59016 109.338 7.65031 109.138 7.77071C107.793 8.59311 106.59 12.4443 106.209 14.1695C106.149 14.4301 106.029 15.1723 106.029 15.7941C106.029 16.3362 106.129 16.8172 106.45 16.8375H106.47C106.831 16.8375 107.292 16.3158 107.693 15.6335C108.074 14.9716 108.496 14.2294 108.877 13.3872ZM114.293 10.4987C113.853 11.4817 113.451 12.4647 113.09 13.4477C112.91 13.949 112.709 14.4702 112.489 14.992C112.448 15.1124 112.408 15.2124 112.388 15.2927C112.368 15.373 112.348 15.4532 112.328 15.5137C112.308 15.5736 112.268 15.6539 112.248 15.7342C112.227 15.8144 112.187 15.9145 112.167 16.0349C112.268 16.5165 112.529 16.8975 112.91 17.1784C113.291 17.4593 113.792 17.4192 114.454 17.0382C114.915 16.7369 115.317 16.2559 115.657 15.6138C115.999 14.992 116.28 14.3097 116.5 13.5675C116.841 12.5048 117.062 11.5416 117.182 10.7191C117.283 10.0572 117.323 9.43542 117.262 8.85376C117.202 8.27216 116.982 7.9512 116.6 7.89105C116.139 7.87099 115.718 8.15181 115.337 8.69339C114.936 9.2551 114.595 9.8571 114.293 10.4987ZM114.253 9.03464C113.953 10.1177 113.632 11.2007 113.291 12.264C113.311 12.2035 113.351 12.1233 113.391 12.0232C113.591 11.5015 113.872 10.8599 114.213 10.1177C114.555 9.37549 114.955 8.71346 115.417 8.13174C115.878 7.55003 116.4 7.26921 116.942 7.24914C117.523 7.30934 117.844 7.73057 117.944 8.49283C118.045 9.25509 118.004 10.0572 117.864 10.9C117.724 11.8225 117.403 12.9056 116.861 14.1695C116.319 15.4334 115.597 16.4159 114.695 17.1383C114.213 17.4995 113.692 17.6798 113.15 17.7001C112.649 17.7199 112.248 17.4593 111.907 16.9178C111.746 17.4192 111.586 17.9206 111.445 18.422C111.184 19.3247 110.904 20.2274 110.643 21.1302C110.603 21.2907 110.643 21.4105 110.763 21.471C110.863 21.5309 111.004 21.5711 111.165 21.5914C111.325 21.6112 111.465 21.6112 111.586 21.6112L111.506 21.8322H108.878L108.938 21.6112H108.958C109.138 21.6112 109.339 21.5914 109.52 21.5309C109.7 21.4908 109.82 21.371 109.901 21.15C110.884 17.8403 111.887 14.5307 112.87 11.2211C112.91 11.0605 112.95 10.9 113.01 10.7191L113.07 10.5388C113.11 10.3986 113.17 10.198 113.231 9.97694C113.291 9.75648 113.371 9.51569 113.451 9.29523C113.531 8.9945 113.591 8.75359 113.652 8.53292C113.692 8.33236 113.692 8.21201 113.652 8.17188C113.471 8.13175 113.271 8.29222 113.01 8.63325C112.749 8.9945 112.508 9.39528 112.288 9.81696C112.067 10.2381 111.947 10.5388 111.907 10.6993L111.686 10.679C111.786 10.3783 111.987 9.95715 112.248 9.41563C112.508 8.8741 112.829 8.3925 113.17 7.93113C113.511 7.48989 113.832 7.26921 114.173 7.24914C114.434 7.26921 114.555 7.46982 114.534 7.83086C114.494 8.19195 114.394 8.59311 114.253 9.03464Z"/>
</mask>
<path d="M106.089 7.20906H105.868C105.969 6.78777 106.029 6.34653 106.049 5.90522C106.069 5.46392 105.969 5.08276 105.768 4.76186C105.347 4.26036 104.865 4.09989 104.284 4.28043C103.702 4.46098 103.22 4.7418 102.82 5.10283C101.756 6.08571 100.974 7.32941 100.433 8.83397C99.8911 10.3381 99.5496 11.6823 99.4095 12.8253C99.189 14.1893 99.2891 15.4131 99.7305 16.4961C100.131 17.3186 100.773 17.5797 101.676 17.3186C102.097 17.1581 102.418 16.8975 102.659 16.5363C102.88 16.1756 103.06 15.8144 103.161 15.4334L104.244 11.8429C104.344 11.5015 104.324 11.281 104.224 11.1809C104.103 11.0803 103.903 11.0204 103.601 11.0204H102.619L102.679 10.7796H106.049L105.969 11.0204C105.467 11.0204 105.146 11.3013 104.966 11.8627L103.722 16.075C103.321 16.5363 102.88 16.9178 102.398 17.2185C101.897 17.5396 101.315 17.7001 100.633 17.7001C100.031 17.7001 99.5898 17.4995 99.2891 17.1179C98.9883 16.7369 98.7673 16.2757 98.6673 15.7342C98.5667 15.1926 98.5067 14.6709 98.5271 14.1695C98.5469 13.0661 98.7673 11.8627 99.1687 10.5592C99.5497 9.2551 100.112 8.05153 100.814 6.96832C101.315 6.20606 101.957 5.504 102.739 4.88221C103.421 4.28043 104.224 3.97954 105.146 3.95947C105.467 3.97954 105.788 4.03974 106.089 4.14002C106.39 4.26036 106.631 4.42084 106.791 4.62145L106.089 7.20906ZM110.582 11.5015L109.038 16.0349C108.977 16.2355 108.917 16.4362 108.917 16.5764C108.917 16.6567 108.937 16.7171 108.997 16.7573C109.017 16.7573 109.038 16.7771 109.078 16.7771C109.599 16.7771 110.642 14.6308 110.762 14.2294L110.983 14.2498C110.662 15.0722 109.499 17.6798 108.496 17.6798H108.476C108.175 17.6798 108.074 17.439 108.074 17.1383C108.074 16.6968 108.295 16.0954 108.376 15.8342L109.378 12.8654C109.098 13.4872 107.152 17.7001 106.029 17.7001C105.708 17.6798 105.447 17.3587 105.306 16.4961C105.266 16.2559 105.246 16.0151 105.246 15.7743C105.246 14.8716 105.487 13.9089 105.748 13.0463C106.289 11.3613 107.412 8.65326 108.957 7.61023C109.338 7.36948 109.719 7.22907 110.04 7.22907C110.602 7.22907 111.023 7.65031 111.164 8.49283L111.806 7.22907H112.026C111.504 8.79383 111.083 10.0171 110.582 11.5015ZM108.877 13.3872C109.619 11.8027 110.301 10.1375 110.602 9.23475C110.602 8.51285 110.321 7.59016 109.659 7.59016C109.519 7.59016 109.338 7.65031 109.138 7.77071C107.793 8.59311 106.59 12.4443 106.209 14.1695C106.149 14.4301 106.029 15.1723 106.029 15.7941C106.029 16.3362 106.129 16.8172 106.45 16.8375H106.47C106.831 16.8375 107.292 16.3158 107.693 15.6335C108.074 14.9716 108.496 14.2294 108.877 13.3872ZM114.293 10.4987C113.853 11.4817 113.451 12.4647 113.09 13.4477C112.91 13.949 112.709 14.4702 112.489 14.992C112.448 15.1124 112.408 15.2124 112.388 15.2927C112.368 15.373 112.348 15.4532 112.328 15.5137C112.308 15.5736 112.268 15.6539 112.248 15.7342C112.227 15.8144 112.187 15.9145 112.167 16.0349C112.268 16.5165 112.529 16.8975 112.91 17.1784C113.291 17.4593 113.792 17.4192 114.454 17.0382C114.915 16.7369 115.317 16.2559 115.657 15.6138C115.999 14.992 116.28 14.3097 116.5 13.5675C116.841 12.5048 117.062 11.5416 117.182 10.7191C117.283 10.0572 117.323 9.43542 117.262 8.85376C117.202 8.27216 116.982 7.9512 116.6 7.89105C116.139 7.87099 115.718 8.15181 115.337 8.69339C114.936 9.2551 114.595 9.8571 114.293 10.4987ZM114.253 9.03464C113.953 10.1177 113.632 11.2007 113.291 12.264C113.311 12.2035 113.351 12.1233 113.391 12.0232C113.591 11.5015 113.872 10.8599 114.213 10.1177C114.555 9.37549 114.955 8.71346 115.417 8.13174C115.878 7.55003 116.4 7.26921 116.942 7.24914C117.523 7.30934 117.844 7.73057 117.944 8.49283C118.045 9.25509 118.004 10.0572 117.864 10.9C117.724 11.8225 117.403 12.9056 116.861 14.1695C116.319 15.4334 115.597 16.4159 114.695 17.1383C114.213 17.4995 113.692 17.6798 113.15 17.7001C112.649 17.7199 112.248 17.4593 111.907 16.9178C111.746 17.4192 111.586 17.9206 111.445 18.422C111.184 19.3247 110.904 20.2274 110.643 21.1302C110.603 21.2907 110.643 21.4105 110.763 21.471C110.863 21.5309 111.004 21.5711 111.165 21.5914C111.325 21.6112 111.465 21.6112 111.586 21.6112L111.506 21.8322H108.878L108.938 21.6112H108.958C109.138 21.6112 109.339 21.5914 109.52 21.5309C109.7 21.4908 109.82 21.371 109.901 21.15C110.884 17.8403 111.887 14.5307 112.87 11.2211C112.91 11.0605 112.95 10.9 113.01 10.7191L113.07 10.5388C113.11 10.3986 113.17 10.198 113.231 9.97694C113.291 9.75648 113.371 9.51569 113.451 9.29523C113.531 8.9945 113.591 8.75359 113.652 8.53292C113.692 8.33236 113.692 8.21201 113.652 8.17188C113.471 8.13175 113.271 8.29222 113.01 8.63325C112.749 8.9945 112.508 9.39528 112.288 9.81696C112.067 10.2381 111.947 10.5388 111.907 10.6993L111.686 10.679C111.786 10.3783 111.987 9.95715 112.248 9.41563C112.508 8.8741 112.829 8.3925 113.17 7.93113C113.511 7.48989 113.832 7.26921 114.173 7.24914C114.434 7.26921 114.555 7.46982 114.534 7.83086C114.494 8.19195 114.394 8.59311 114.253 9.03464Z" fill="#234952" stroke="#234952" stroke-width="2" mask="url(#path-3-inside-3_2_16)"/>
<path d="M18.4616 27.281L17.3912 26.3893L16.3213 25.497L25.2419 14.7968L26.3118 15.6885L27.3822 16.5808L27.5598 18.543L25.7758 20.6832L27.916 22.4672L28.0941 24.4294L26.3096 26.5696L24.3475 26.7472L22.2077 24.9632L20.4237 27.1035L18.4616 27.281Z" stroke="#234952" stroke-width="2.22991"/>
<path d="M11.4306 21.4194L12.5004 22.3117L13.5708 23.2034L22.4914 12.5032L21.421 11.6109L20.3512 10.7192L18.389 10.8968L16.605 13.037L14.4647 11.253L12.5026 11.4306L10.7186 13.5708L10.8967 15.533L13.0364 17.317L11.2524 19.4572L11.4306 21.4194Z" stroke="#234952" stroke-width="2.22991"/>
<path d="M19.659 37.318C29.4118 37.318 37.318 29.4118 37.318 19.659C37.318 9.9062 29.4118 2 19.659 2C9.9062 2 2 9.9062 2 19.659C2 29.4118 9.9062 37.318 19.659 37.318Z" stroke="#234952" stroke-width="2.67672"/>
</svg>
