<svg width="39" height="39" viewBox="0 0 39 39" fill="none" xmlns="http://www.w3.org/2000/svg">
<path d="M18.4616 27.281L17.3912 26.3893L16.3213 25.497L25.2419 14.7968L26.3118 15.6885L27.3822 16.5808L27.5598 18.543L25.7758 20.6832L27.916 22.4672L28.0941 24.4294L26.3096 26.5696L24.3475 26.7472L22.2077 24.9632L20.4237 27.1035L18.4616 27.281Z" stroke="white" stroke-width="2.22991"/>
<path d="M11.4306 21.4194L12.5004 22.3117L13.5708 23.2034L22.4914 12.5032L21.421 11.6109L20.3512 10.7192L18.389 10.8968L16.605 13.037L14.4647 11.253L12.5026 11.4306L10.7186 13.5708L10.8967 15.533L13.0364 17.317L11.2524 19.4572L11.4306 21.4194Z" stroke="white" stroke-width="2.22991"/>
<path d="M19.659 37.318C29.4118 37.318 37.318 29.4118 37.318 19.659C37.318 9.9062 29.4118 2 19.659 2C9.9062 2 2 9.9062 2 19.659C2 29.4118 9.9062 37.318 19.659 37.318Z" stroke="white" stroke-width="2.67672"/>
</svg>
